<svg class="h-12 w-auto" xmlns="http://www.w3.org/2000/svg" version="1.1" viewBox="0 0 400 523" preserveAspectRatio="xMidYMid meet">
      <g fill="#fbfcfd">
        <path d="M77.44 396.92 c-5.64 -6.92 -13.33 -36.15 -14.87 -56.41 -3.33 -44.36 11.03 -85.90 40 -114.87 26.41 -26.41 70 -42.56 108.72 -40.51 15.38 0.77 18.21 1.79 23.59 7.95 5.13 5.90 6.15 10 6.15 23.33 0 22.56 -5.90 28.46 -30.77 30.51 -25.64 2.05 -45.64 11.79 -62.56 30.26 -18.97 20.26 -23.08 33.59 -20.77 64.87 1.79 23.59 1.79 23.59 -14.87 40.77 -13.33 13.59 -18.46 17.18 -24.36 17.18 -4.10 0 -8.72 -1.54 -10.26 -3.08z"/>
      </g>
      <g fill="#dde7f2">
        <path d="M93.08 420 c-10 -11.28 -13.59 -18.72 -13.59 -27.44 0 -8.46 0.26 -8.72 4.10 -4.87 4.10 3.85 5.38 3.08 20.51 -12.56 8.97 -9.23 16.41 -18.46 16.41 -20.26 0 -7.69 9.23 -3.33 14.87 7.18 7.69 14.87 7.18 25.13 -1.79 40 -14.62 23.33 -29.49 30 -40.51 17.95z"/>
      </g>
      <g fill="#c3d4eb">
        <path d="M113.08 439.74 c-14.36 -10.51 -15.64 -12.31 -15.64 -21.03 0 -8.72 0.26 -9.23 4.10 -5.38 3.85 3.85 4.62 3.59 10.51 -1.28 8.72 -7.69 21.79 -29.74 20.26 -34.10 -2.56 -6.92 10.26 -3.85 17.95 4.36 4.10 4.36 11.28 10 15.90 13.08 11.79 7.18 11.54 19.49 -0.51 31.28 -4.62 4.87 -10.26 12.31 -12.05 16.67 -3.08 6.92 -4.87 7.95 -14.10 7.95 -8.72 0 -13.85 -2.31 -26.41 -11.54z"/>
      </g>
      <g fill="#97b8dd">
        <path d="M150 460.51 c-12.82 -4.87 -15.64 -6.92 -16.15 -12.56 -0.77 -5.13 0 -6.41 3.85 -5.38 3.33 1.03 5.64 -1.03 8.21 -6.67 1.79 -4.62 7.44 -12.31 12.56 -17.18 8.21 -8.21 8.72 -9.49 4.87 -12.31 -2.31 -1.79 -4.36 -3.85 -4.36 -4.87 0 -2.56 12.56 -1.79 26.41 2.05 7.44 2.05 17.69 4.36 23.08 5.38 8.72 1.28 9.49 2.05 9.49 10.26 0 4.87 -1.03 8.97 -2.05 8.97 -2.82 0 -26.15 32.05 -26.15 35.64 0 4.87 -23.33 2.82 -39.74 -3.33z"/>
        <path d="M285.64 331.54 c2.05 -30 5.13 -37.69 16.41 -42.05 9.74 -3.85 30.26 -1.54 36.41 4.10 3.59 3.33 5.13 7.95 5.13 15.64 0 10.26 -1.03 11.79 -21.03 30.26 -17.69 16.15 -22.82 19.49 -30 19.49 -8.72 0 -8.72 0 -6.92 -27.44z"/>
      </g>
      <g fill="#79a5d3">
        <path d="M173.59 464.87 c-3.33 -3.33 -1.79 -5.90 3.85 -5.90 3.08 0 4.87 -0.77 3.85 -1.54 -1.54 -1.79 18.97 -30.51 25.64 -36.15 3.08 -2.31 2.31 -3.08 -4.10 -4.62 -14.10 -3.08 -9.23 -8.21 9.49 -9.74 30.77 -3.08 31.28 -2.82 31.28 6.67 0 8.72 -12.31 29.74 -26.41 44.87 -7.44 7.69 -8.97 8.21 -24.87 8.21 -9.49 0 -17.95 -0.77 -18.72 -1.79z"/>
        <path d="M274.36 371.79 c0 -8.72 7.18 -25.64 12.82 -30 3.08 -2.56 4.10 -1.79 5.13 3.08 1.28 5.90 2.56 5.13 22.56 -13.33 15.64 -14.10 21.03 -20.77 20.26 -24.36 -1.03 -3.59 0 -4.62 4.87 -4.62 5.90 0 6.15 0.51 6.15 21.79 0 12.56 -1.03 21.79 -2.56 21.79 -1.28 0 -7.44 5.38 -13.33 12.05 -13.33 14.36 -27.44 21.03 -43.59 21.28 -12.05 0 -12.31 -0.26 -12.31 -7.69z"/>
      </g>
      <g fill="#45b7e4">
        <path d="M62.31 222.82 c-2.31 -2.31 1.28 -10 13.85 -30.26 35.13 -57.44 124.62 -187.44 128.97 -187.44 1.03 0 10 11.54 20.26 25.64 17.95 24.87 18.72 26.15 15.64 33.59 -5.13 12.05 -12.56 20.26 -18.97 20.26 -8.21 0 -11.79 4.87 -11.79 15.64 0 11.79 -9.49 22.82 -20 22.82 -8.97 0 -18.46 9.49 -18.46 18.21 0 7.44 -14.36 22.82 -21.28 22.82 -2.56 0 -5.64 2.82 -7.18 6.15 -3.85 8.46 -15.64 16.67 -27.18 18.97 -8.46 1.79 -9.74 3.08 -10.51 9.49 -1.28 13.59 -5.90 21.28 -13.85 24.10 -10.26 3.59 -25.90 3.59 -29.49 0z"/>
      </g>
      <g fill="#669ace">
        <path d="M176.92 464.10 c0 -4.36 1.79 -5.13 12.31 -5.13 10.51 0 13.33 -1.28 20.26 -8.21 4.10 -4.62 11.03 -13.59 15.38 -20 12.56 -19.23 12.56 -18.72 5.38 -17.44 -5.38 1.03 -6.15 0.26 -5.13 -4.36 0.51 -3.59 4.36 -6.67 10.26 -8.97 5.38 -1.79 16.41 -10.51 25.13 -19.23 15.90 -16.15 29.23 -23.85 23.85 -13.85 -2.05 3.85 -1.54 4.87 2.05 4.87 9.23 -0.26 25.38 -9.74 36.67 -22.05 6.41 -6.92 12.31 -12.31 13.59 -11.79 1.03 0.26 1.79 -1.79 1.79 -4.87 0 -3.08 1.28 -4.87 3.33 -4.36 4.62 1.79 5.64 32.82 1.03 32.82 -3.85 0 -32.31 26.41 -43.33 40 -3.59 4.62 -10 10 -14.36 12.31 -4.36 2.31 -10 6.15 -12.56 8.72 -2.56 2.56 -9.74 8.72 -16.15 13.85 -6.41 4.87 -16.92 14.36 -23.33 21.03 -11.79 11.79 -11.79 11.79 -34.10 11.79 -20.26 0 -22.05 -0.51 -22.05 -5.13z"/>
      </g>
      <g fill="#41a8db">
        <path d="M25.64 313.59 c0 -16.67 7.95 -42.31 22.05 -70.51 7.44 -14.87 14.87 -27.95 16.41 -28.97 1.54 -1.03 4.36 -0.26 6.41 1.28 2.82 2.31 5.90 2.31 12.56 0 9.23 -2.82 13.59 -10 14.87 -24.36 0.77 -6.41 2.05 -7.69 10.51 -9.49 11.54 -2.31 23.33 -10.51 27.18 -18.97 1.54 -3.33 4.87 -6.15 7.44 -6.15 6.92 0 21.03 -15.64 21.03 -23.33 0 -8.46 10 -17.69 18.97 -17.69 4.10 0 9.23 -2.56 13.08 -6.67 4.87 -5.38 5.64 -7.69 3.59 -13.08 -2.05 -5.38 -1.03 -7.44 5.13 -13.85 4.10 -4.10 9.23 -6.92 11.03 -6.15 4.36 1.79 10 -4.10 16.67 -17.69 5.13 -10 5.13 -10 19.49 10.77 8.21 11.28 14.62 21.28 14.62 22.31 0 3.85 -10.77 16.67 -14.10 16.67 -4.62 0 -24.36 13.08 -24.36 16.15 0 1.28 -5.13 7.18 -11.54 13.59 -6.41 6.15 -11.54 13.33 -11.54 16.41 0 3.59 -3.33 6.67 -11.54 10.51 -10.26 4.87 -11.54 6.41 -11.54 13.59 0 10.26 -9.49 19.49 -26.41 25.64 -18.21 6.92 -42.05 23.85 -53.59 38.46 -5.90 7.18 -15.13 22.56 -20.51 34.36 -8.97 18.72 -11.28 21.54 -20 25.13 -5.38 2.31 -13.08 7.95 -16.67 12.82 -4.36 5.64 -8.72 8.72 -13.08 8.72 -5.38 0 -6.15 -1.03 -6.15 -9.49z"/>
      </g>
      <g fill="#3c9cd3">
        <path d="M30.77 372.56 c-3.59 -11.28 -6.15 -68.72 -3.08 -61.28 2.05 4.62 2.82 4.10 9.23 -4.10 3.85 -5.13 10.51 -10.77 15.13 -12.56 4.62 -1.79 11.28 -5.64 15.13 -8.46 3.85 -2.82 7.69 -4.36 8.46 -3.85 0.51 0.77 -0.51 9.49 -2.56 19.23 -2.05 9.74 -3.85 21.54 -3.85 26.15 0 4.87 -2.31 11.54 -5.13 15.13 -2.82 3.59 -5.13 9.23 -5.13 12.31 0 7.44 -15.13 26.67 -21.03 26.67 -2.82 0.26 -5.38 -3.08 -7.18 -9.23z"/>
        <path d="M158.97 198.97 c0 -1.54 3.59 -7.18 7.69 -12.31 6.41 -7.95 7.44 -10.51 5.13 -14.62 -3.85 -7.44 -3.85 -7.18 11.54 -14.36 10.51 -4.62 14.10 -7.69 14.10 -11.54 0 -3.08 5.13 -10.26 11.54 -16.41 6.41 -6.41 11.54 -12.31 11.54 -13.59 0 -3.08 20 -16.15 24.62 -16.15 1.79 0 6.15 -4.10 9.74 -9.23 6.15 -9.23 6.15 -9.23 20.51 11.03 7.69 11.03 14.36 20.77 14.36 21.79 0 0.77 -6.41 5.38 -13.85 9.74 -7.69 4.36 -14.62 10 -15.38 12.31 -1.03 2.56 -7.44 10.77 -14.36 18.21 -7.44 7.95 -12.82 16.15 -12.82 19.23 0 3.08 -1.54 7.69 -3.33 10.26 -2.82 3.85 -4.36 3.85 -10.77 1.54 -8.72 -3.33 -30.77 -1.54 -48.72 3.85 -8.46 2.56 -11.54 2.56 -11.54 0.26z"/>
      </g>
      <g fill="#4e8fc9">
        <path d="M205.13 466.15 c0 -2.31 2.82 -4.87 6.15 -5.64 3.33 -0.77 10 -5.90 14.62 -11.03 4.87 -5.38 14.62 -14.36 21.54 -20 7.18 -5.64 14.87 -12.05 17.44 -14.62 2.56 -2.56 8.21 -6.41 12.56 -8.72 4.36 -2.31 10.77 -7.69 14.36 -12.31 10.77 -13.33 39.49 -40 43.08 -40 2.05 0 3.59 -1.79 3.59 -3.85 0 -2.05 1.28 -3.85 2.56 -3.85 4.87 0 2.82 25.13 -3.59 38.97 -6.41 14.62 -8.97 16.67 -36.15 30.26 -12.31 6.15 -19.74 11.79 -23.59 17.95 -18.97 30 -22.56 32.05 -55.13 35.13 -14.62 1.28 -17.44 0.77 -17.44 -2.31z"/>
      </g>
      <g fill="#378cc9">
        <path d="M246.15 457.95 c0 -0.77 3.59 -5.13 7.95 -9.74 4.36 -4.62 9.49 -11.79 11.79 -16.15 6.67 -12.82 11.54 -16.92 30.26 -25.64 10 -4.62 21.28 -11.28 25.13 -15.13 3.85 -3.59 7.69 -6.67 8.46 -6.67 3.33 0 0.26 16.92 -5.13 25.13 -8.21 13.33 -34.62 37.18 -48.21 43.85 -9.74 4.62 -30.26 7.69 -30.26 4.36z"/>
        <path d="M46.41 412.56 c-5.38 -8.97 -15.64 -37.69 -13.59 -38.72 5.38 -2.31 18.46 -21.03 18.46 -26.41 0 -3.85 3.59 -10.51 8.72 -15.90 8.72 -9.49 8.72 -9.49 10.51 6.92 1.54 14.10 6.15 32.05 12.82 48.97 1.28 3.33 -1.28 5.90 -8.72 10.26 -5.90 3.08 -12.05 8.97 -13.59 13.08 -3.85 8.46 -9.74 9.23 -14.62 1.79z"/>
        <path d="M123.59 330.51 c-7.95 -2.31 -8.21 -3.08 -6.92 -12.05 7.18 -42.56 38.46 -73.33 79.74 -78.72 13.08 -1.79 13.08 -1.79 14.87 6.41 2.82 14.62 1.79 21.79 -4.87 30.77 -3.59 4.87 -6.41 9.74 -6.41 11.28 0 4.36 -21.28 24.62 -25.90 24.62 -2.31 0 -8.97 4.62 -14.62 10.26 -10.77 11.03 -18.21 12.56 -35.90 7.44z"/>
        <path d="M232.82 217.95 c0.77 -8.46 -0.26 -11.28 -6.92 -17.95 -7.44 -7.44 -7.69 -8.46 -4.10 -13.85 2.05 -3.08 3.08 -6.41 2.31 -7.18 -2.31 -2.56 3.59 -11.54 15.64 -24.36 6.41 -6.41 12.05 -13.85 12.82 -16.41 0.77 -2.31 8.46 -8.46 16.67 -13.59 15.38 -8.97 15.38 -8.97 28.21 9.74 13.85 20.77 15.38 17.44 -23.59 47.69 -5.90 4.62 -7.18 7.44 -7.18 16.67 0 9.49 -1.28 12.05 -10.26 20.26 -6.67 5.90 -12.82 9.23 -17.44 9.23 -6.67 0 -6.92 -0.51 -6.15 -10.26z"/>
      </g>
      <g fill="#347bbf">
        <path d="M77.69 453.08 c-16.92 -17.44 -32.82 -40.26 -29.49 -42.56 1.03 -0.77 3.33 -4.62 5.38 -8.21 1.79 -3.85 7.95 -9.23 13.33 -12.31 5.38 -3.08 10 -6.67 10 -8.21 0 -1.28 1.28 -2.31 2.56 -2.31 1.54 0 2.56 1.28 2.56 2.56 0 5.38 18.21 31.28 29.49 42.31 6.41 6.15 11.54 11.79 11.54 12.82 0 2.05 -25.38 30.26 -28.21 31.54 -0.77 0.26 -8.72 -6.67 -17.18 -15.64z"/>
        <path d="M129.74 373.85 c-7.44 -11.54 -11.79 -25.13 -12.31 -39.74 -0.77 -16.15 -0.77 -16.41 15.38 -11.28 7.44 2.31 9.23 1.79 17.18 -5.38 4.87 -4.10 8.97 -9.49 8.97 -11.54 0 -2.82 1.54 -3.59 5.64 -2.31 4.62 1.03 8.46 -1.03 16.67 -9.23 6.15 -5.90 11.03 -12.05 11.03 -13.59 0 -1.54 2.82 -6.67 6.15 -11.03 4.87 -6.67 5.90 -10.51 4.62 -19.74 -1.28 -11.54 -1.28 -11.54 7.95 -11.54 6.41 0 10.77 -1.79 14.87 -6.67 3.33 -3.59 7.44 -7.44 8.72 -8.72 1.54 -1.28 7.44 -6.67 13.59 -11.79 10.26 -8.97 11.03 -10.26 9.49 -18.97 -1.54 -8.46 -0.77 -10.26 7.44 -16.92 24.10 -20 37.44 -29.49 39.49 -28.21 3.33 2.05 28.72 43.85 28.72 47.18 0 1.54 -3.59 8.21 -7.95 14.62 -7.69 11.28 -8.46 11.79 -18.72 11.03 -10.51 -0.77 -10.51 -0.77 -19.74 18.21 -7.18 14.62 -11.28 20 -17.95 23.08 -7.95 3.85 -14.36 11.79 -20.77 25.90 -1.54 3.59 -8.46 10.51 -15.64 15.38 -18.46 13.08 -31.28 27.18 -40.77 45.38 -7.18 13.85 -9.74 16.41 -16.92 17.69 -4.62 1.03 -14.36 4.36 -21.28 7.69 -15.64 7.69 -19.23 7.69 -23.85 0.51z"/>
      </g>
      <g fill="#2f6ab5">
        <path d="M104.36 475.38 c-20 -13.33 -20.26 -9.49 2.05 -34.36 10.51 -11.54 10.51 -11.54 24.36 -2.05 7.69 5.38 15.64 9.74 17.44 9.74 7.18 0 2.82 12.31 -8.46 22.56 -6.41 5.64 -11.54 11.79 -11.54 13.08 0 5.13 -6.41 2.82 -23.85 -8.97z"/>
        <path d="M158.97 403.08 c-6.41 -4.10 -15.90 -12.31 -21.28 -18.46 -8.97 -10.51 -12.56 -17.44 -7.18 -14.10 1.54 0.77 8.21 -1.28 15.38 -4.62 6.92 -3.59 16.67 -6.92 21.28 -7.95 7.18 -1.28 9.74 -3.85 16.92 -17.69 9.49 -18.21 22.31 -32.31 40.77 -45.38 7.18 -4.87 14.10 -11.79 15.64 -15.38 6.41 -14.36 12.82 -22.05 20.77 -25.64 6.67 -2.82 10.26 -7.44 16.92 -21.79 10.26 -22.56 13.85 -25.90 24.36 -22.31 7.44 2.82 8.21 2.31 14.87 -7.95 3.85 -5.90 7.44 -13.08 8.46 -15.90 1.03 -4.10 4.10 -0.26 14.62 17.44 7.44 12.31 13.33 23.08 13.33 23.59 0 0.51 -2.82 3.85 -6.15 7.18 -4.10 4.10 -6.92 10.51 -7.95 18.72 -2.31 16.92 -3.08 18.72 -8.21 20.77 -2.56 1.03 -9.23 6.15 -14.62 11.79 -9.23 9.23 -11.03 10 -21.03 8.72 -10.51 -1.03 -11.28 -0.77 -23.08 12.82 -6.67 7.69 -15.38 15.38 -19.23 16.67 -5.38 1.79 -7.44 4.36 -7.44 8.72 0 8.72 -14.10 23.59 -24.36 25.64 -10.77 2.05 -16.92 8.46 -30.26 32.05 -6.92 12.31 -12.56 19.23 -15.90 19.74 -2.82 0.26 -10.26 -2.56 -16.67 -6.67z"/>
      </g>
      <g fill="#2b5cac">
        <path d="M142.31 495.13 c-19.74 -7.18 -31.79 -13.85 -26.15 -15.13 2.31 -0.51 4.36 -1.79 4.36 -3.08 0 -1.28 5.90 -7.95 13.08 -15.13 13.08 -12.82 13.08 -12.82 30.77 -7.18 15.13 4.87 17.69 6.41 17.69 11.54 0 6.41 -19.74 33.85 -24.36 33.85 -1.28 -0.26 -8.21 -2.31 -15.38 -4.87z"/>
        <path d="M183.33 413.59 c-2.82 -0.77 -7.95 -2.56 -11.28 -3.85 -6.15 -2.31 -6.15 -2.31 -1.03 -7.95 3.08 -3.08 8.97 -12.56 13.59 -21.03 11.28 -20.51 19.23 -28.72 29.49 -30.51 10.26 -2.05 24.36 -16.92 24.36 -25.64 0 -4.36 2.05 -6.92 7.44 -8.72 3.85 -1.28 12.56 -8.97 19.23 -16.67 15.90 -18.21 22.82 -22.05 29.49 -16.15 4.62 4.10 5.13 3.85 14.62 -5.38 5.64 -5.38 12.31 -11.03 15.13 -12.31 2.82 -1.54 5.38 -5.64 5.38 -8.97 0.77 -12.56 6.15 -27.44 12.31 -32.56 7.44 -6.67 7.69 -6.41 20.51 18.97 9.23 18.72 9.23 18.72 0.26 24.36 -5.90 3.85 -8.97 7.95 -8.97 11.54 0 3.33 -4.10 10.51 -9.23 16.15 -8.97 10 -9.74 10.26 -14.36 5.90 -2.82 -2.31 -8.97 -4.36 -14.10 -4.36 -12.82 0 -21.28 10 -21.28 25.38 0 14.36 -3.59 23.59 -9.74 25.38 -5.64 1.79 -9.74 10.77 -11.79 25.90 -1.79 13.33 -8.97 19.23 -23.33 19.23 -9.23 0 -12.05 1.28 -16.15 7.18 -2.56 3.85 -5.64 8.97 -6.41 11.54 -1.28 3.59 -4.62 4.36 -20.26 4.10 -10.26 -0.26 -21.03 -1.03 -23.85 -1.54z"/>
      </g>
      <g fill="#284fa3">
        <path d="M182.31 505.13 c-7.44 -1.28 -18.72 -3.59 -24.87 -5.13 -10.51 -3.08 -10.77 -3.33 -6.41 -7.44 8.46 -7.44 23.85 -28.21 22.56 -30.26 -0.77 -1.03 13.08 -2.05 30.51 -2.05 31.79 0 31.79 0 31.79 6.67 0 13.59 -3.33 22.56 -11.54 31.54 -9.23 10 -13.59 10.77 -42.05 6.67z"/>
        <path d="M218.97 407.44 c0.77 -4.36 3.85 -11.28 6.92 -15.38 4.36 -6.15 6.92 -7.44 16.41 -7.44 14.87 0 22.82 -6.41 22.31 -18.21 -0.51 -12.31 6.15 -23.33 17.69 -29.74 10 -5.38 10 -5.38 10 4.10 0 24.36 -27.69 58.97 -55.38 69.23 -18.72 7.18 -20 6.92 -17.95 -2.56z"/>
        <path d="M333.59 368.72 c1.79 -3.33 3.59 -17.18 4.36 -31.03 1.03 -23.08 0.77 -25.90 -4.36 -32.82 -5.64 -7.69 -5.64 -7.69 3.33 -17.95 5.13 -5.38 9.23 -12.56 9.23 -15.90 0.26 -3.59 3.85 -8.21 10.26 -12.56 10.26 -7.18 10.26 -7.18 15.13 2.56 5.90 12.05 13.08 42.82 13.08 57.44 0 8.46 -2.05 14.36 -8.97 24.36 -4.87 7.44 -8.97 14.36 -8.97 15.64 0 1.28 -3.08 5.38 -6.67 9.23 -5.38 5.13 -9.49 6.67 -18.21 6.67 -10.77 0 -11.03 -0.26 -8.21 -5.64z"/>
      </g>
      <g fill="#253a96">
        <path d="M200 505.38 c0 -1.54 2.05 -2.82 4.62 -2.82 7.18 0 21.54 -22.31 22.05 -33.85 0 -6.15 1.28 -9.74 3.59 -9.74 7.18 0 39.49 -12.82 49.74 -20 18.46 -12.82 36.67 -34.10 46.67 -54.87 7.18 -15.13 10.26 -19.23 13.85 -18.21 4.62 1.03 18.46 -10.26 18.46 -15.13 0 -3.08 15.64 -26.15 18.46 -27.18 1.03 -0.51 2.05 -7.95 2.31 -16.67 0.51 -24.10 4.36 -7.95 4.62 18.72 0.26 30.26 -5.13 53.59 -19.23 82.05 -10 20.26 -15.90 28.21 -34.10 46.15 -32.05 32.05 -66.41 47.95 -113.59 52.56 -11.79 1.03 -17.44 0.77 -17.44 -1.03z"/>
      </g>
    </svg>