<?xml version="1.0" encoding="utf-8"?>
<svg xmlns="http://www.w3.org/2000/svg" viewBox="270.1248 273.1539 482.3916 536.752" width="482.392px" height="536.752px">
  <defs>
    <linearGradient gradientUnits="userSpaceOnUse" x1="511.321" y1="273.154" x2="511.321" y2="809.01" id="gradient-0">
      <stop offset="0" style="stop-color: rgb(54.118% 0% 87.059%)"/>
      <stop offset="1" style="stop-color: rgb(0% 0% 100%)"/>
    </linearGradient>
  </defs>
  <path d="M 502.874 273.706 C 502.805 274.143 502.692 286.799 502.624 301.832 L 502.5 329.164 L 499.694 331.582 C 496.091 334.687 493.907 334.634 490.636 331.364 L 488 328.727 L 488 302.284 L 488 275.841 L 484.786 276.547 C 483.018 276.935 479.981 277.803 478.036 278.476 L 474.5 279.699 L 474 304.438 L 473.5 329.177 L 470.694 331.588 C 467.269 334.533 466.017 334.588 462.655 331.943 L 460.039 329.886 L 459.77 308.777 L 459.5 287.668 L 453.224 292.892 C 444.261 300.353 436.552 310.115 431.424 320.5 C 425.092 333.324 423 342.551 423 357.66 L 423 370 L 446.943 370 C 470.552 370 470.908 370.031 472.443 372.223 C 474.832 375.632 474.397 379.542 471.365 381.927 C 468.874 383.887 467.483 384 445.865 384 L 423 384 L 423 391.383 L 423 398.765 L 446.603 398.82 C 467.457 398.869 470.426 399.076 472.103 400.593 C 474.972 403.189 474.598 408.384 471.359 410.932 C 468.8 412.945 468.009 412.989 445.859 412.346 L 423 411.682 L 423 436.341 L 423 461 L 446.566 461 C 460.898 461 470.889 461.406 472.066 462.035 C 474.258 463.208 474.701 467.899 472.8 469.8 C 471.933 470.667 464.867 471 447.3 471 L 423 471 L 423 508.84 C 423 552.433 423.381 555.175 431.662 571.209 C 443.601 594.325 462.147 609.429 487.5 616.686 C 495.433 618.957 517.01 619.527 526.534 617.718 C 549.883 613.282 571.084 599.299 583.457 580.173 C 589.341 571.076 592.131 564.767 595.031 554 C 597.176 546.034 597.347 543.162 597.752 508.267 L 598.185 471.035 L 572.866 470.767 L 547.547 470.5 L 546.591 467.78 C 545.834 465.626 546.017 464.639 547.473 463.03 C 549.223 461.096 550.459 461 573.673 461 L 598.036 461 L 597.768 436.75 L 597.5 412.5 L 576.5 412.278 C 564.95 412.156 554.263 412.044 552.75 412.028 C 546.819 411.967 543.767 404.333 548.103 400.405 C 550.026 398.663 552.25 398.474 574.103 398.199 L 598 397.899 L 598 391 L 598 384.101 L 573.941 383.801 L 549.883 383.5 L 547.964 381 C 545.491 377.779 545.516 375.886 548.073 372.635 L 550.145 370 L 574.225 370 L 598.305 370 L 597.643 357.624 C 597.278 350.79 596.085 341.722 594.981 337.374 C 590.739 320.684 579.879 303.045 567.706 293.076 C 564.298 290.284 561.138 288 560.685 288 C 560.232 288 559.981 297.236 560.128 308.525 C 560.384 328.227 560.31 329.134 558.295 331.15 C 555.591 333.854 551.387 333.831 548.653 331.099 C 546.582 329.03 546.489 328.002 546.201 303.988 L 545.902 279.027 L 540.201 277.445 C 537.066 276.575 533.938 275.683 533.25 275.463 C 532.272 275.15 532 280.7 532 300.984 C 532 318.12 531.617 327.746 530.87 329.385 C 529.416 332.577 524.892 334.548 522.258 333.138 C 517.554 330.621 517.501 330.262 517.49 301.096 L 517.481 273.5 L 510.24 273.206 C 506.258 273.045 502.943 273.27 502.874 273.706 M 606.302 315.339 C 607.145 316.625 609.019 321.463 610.467 326.089 C 612.923 333.939 613.412 334.706 617.799 337.594 C 647.069 356.861 674.088 390.045 688.485 424.41 C 692.799 434.707 698.807 454.804 700.918 466 C 703.907 481.851 704.703 502.624 702.942 518.789 C 700.452 541.654 695.521 558.913 685.597 579.5 C 669.902 612.06 647.035 637.707 612.716 661.241 C 607.885 664.555 604.097 667.431 604.3 667.633 C 604.989 668.322 624.313 660.011 633.763 654.962 C 673.117 633.934 700.137 603.274 715.144 562.618 C 727.512 529.111 729.697 486.824 720.988 449.5 C 707.98 393.753 666.456 341.395 616.276 317.47 C 605.542 312.352 604.15 312.054 606.302 315.339 M 396 356.429 C 329.583 383.63 280.861 450.633 271.438 527.727 C 270.151 538.252 269.886 545.98 270.315 560.5 C 271.259 592.532 276.485 616.124 289.525 647.232 C 296.035 662.763 312.89 690.537 315.315 689.728 C 315.902 689.533 317.67 687.782 319.243 685.839 L 322.103 682.305 L 316.604 671.902 C 303.845 647.767 293.615 614.624 289.96 585.586 C 288.206 571.653 289.204 540.432 291.848 526.5 C 295.922 505.037 303.201 483.349 312.637 464.555 C 325.591 438.754 348.357 411.269 372.09 392.777 C 378.86 387.502 398.57 374.677 402.73 372.84 C 403.673 372.424 403.13 353.965 402.179 354.088 C 401.806 354.137 399.025 355.19 396 356.429 M 504.973 429.646 C 498.902 433.688 498.241 438.927 503.104 444.465 C 505.639 447.353 506.906 448 510.027 448 C 517.599 448 522.818 440.416 519.569 434.134 C 516.503 428.204 510.097 426.234 504.973 429.646 M 387.388 444.927 C 386.227 445.425 384.314 447.057 383.138 448.552 C 381.008 451.259 381 451.497 381.004 510.885 C 381.009 577.37 381.286 581.125 387.598 600 C 402.124 643.436 440.055 674.386 486.25 680.494 L 491 681.123 L 491 730.061 L 491 779 L 459.75 779.016 C 429.26 779.033 428.405 779.087 424.588 781.266 C 419.126 784.386 416.759 789.456 416.191 799.254 C 415.845 805.237 415.699 809.188 416.709 809.812 C 417.448 810.269 460.4 808.907 511.71 808.944 L 605 809.01 L 605 800.973 C 605 796.373 604.411 791.56 603.623 789.718 C 601.958 785.826 597.516 781.511 593.685 780.064 C 591.921 779.397 579.507 779 560.435 779 L 530 779 L 530 730.079 L 530 681.159 L 532.75 680.644 C 534.263 680.36 537.73 679.833 540.456 679.472 C 543.182 679.111 549.213 677.714 553.857 676.369 C 596.95 663.881 630.155 625.988 637.457 580.966 C 638.715 573.209 638.993 560.635 638.996 511.327 L 639 451.153 L 636.44 448.111 C 632.15 443.013 624.768 442.716 619.297 447.42 L 616.5 449.825 L 615.97 513.663 L 615.441 577.5 L 612.654 586.495 C 611.121 591.441 608.103 599.253 605.947 603.854 C 594.362 628.575 570.439 648.325 543.354 655.528 C 529.643 659.174 498.331 659.661 481.5 656.49 C 446.912 649.973 417.536 622.061 407.313 586 L 404.62 576.5 L 404.06 513.272 L 403.5 450.043 L 400.868 447.412 C 397.997 444.543 391.2 443.29 387.388 444.927 M 360.225 571 C 352.447 607.909 357.281 648.002 373.541 681.425 C 379.264 693.19 391.688 712.017 399.986 721.5 C 416.165 739.987 443.508 758.916 461.944 764.391 C 472.34 767.478 472 767.839 472 753.733 L 472 741.465 L 465.913 739.048 C 452.902 733.88 427.112 714.744 416.5 702.385 C 402.192 685.721 395.145 675.328 386.745 658.5 C 373.989 632.949 366.642 605.919 363.642 573.5 L 362.438 560.5 L 360.225 571 M 746.584 604.652 C 732.085 646.853 701.275 685.279 662.72 709.245 C 633.963 727.121 593.8 739 562.122 739 L 551 739 L 551 752.005 L 551 765.01 L 561.25 764.467 C 593.817 762.741 615.036 758.191 640.743 747.421 C 692.164 725.878 736.292 677.778 748.941 629.485 C 752.739 614.985 753.64 600.117 751.022 595.152 C 750.592 594.338 748.834 598.103 746.584 604.652" stroke="none" fill-rule="evenodd" transform="matrix(1, 0, 0, 1, 0, 5.417888360170764e-14)" style="fill: url(&quot;#gradient-0&quot;);"/>
</svg>
